<svg width="25" height="24" viewBox="0 0 25 24" fill="none" xmlns="http://www.w3.org/2000/svg">
<path d="M12.333 2C6.81301 2 2.33301 6.48 2.33301 12C2.33301 17.52 6.81301 22 12.333 22C17.853 22 22.333 17.52 22.333 12C22.333 6.48 17.853 2 12.333 2ZM12.333 5C13.993 5 15.333 6.34 15.333 8C15.333 9.66 13.993 11 12.333 11C10.673 11 9.33301 9.66 9.33301 8C9.33301 6.34 10.673 5 12.333 5ZM12.333 19.2C9.83301 19.2 7.62301 17.92 6.33301 15.98C6.36301 13.99 10.333 12.9 12.333 12.9C14.323 12.9 18.303 13.99 18.333 15.98C17.043 17.92 14.833 19.2 12.333 19.2Z" fill="#37072A"/>
</svg>
