<svg width="25" height="24" viewBox="0 0 25 24" fill="none" xmlns="http://www.w3.org/2000/svg">
<path d="M12.333 2C6.81301 2 2.33301 6.48 2.33301 12C2.33301 17.52 6.81301 22 12.333 22C17.853 22 22.333 17.52 22.333 12C22.333 6.48 17.853 2 12.333 2ZM7.40301 18.28C7.83301 17.38 10.453 16.5 12.333 16.5C14.213 16.5 16.843 17.38 17.263 18.28C15.903 19.36 14.193 20 12.333 20C10.473 20 8.76301 19.36 7.40301 18.28ZM18.693 16.83C17.263 15.09 13.793 14.5 12.333 14.5C10.873 14.5 7.40301 15.09 5.97301 16.83C4.95301 15.49 4.33301 13.82 4.33301 12C4.33301 7.59 7.92301 4 12.333 4C16.743 4 20.333 7.59 20.333 12C20.333 13.82 19.713 15.49 18.693 16.83ZM12.333 6C10.393 6 8.83301 7.56 8.83301 9.5C8.83301 11.44 10.393 13 12.333 13C14.273 13 15.833 11.44 15.833 9.5C15.833 7.56 14.273 6 12.333 6ZM12.333 11C11.503 11 10.833 10.33 10.833 9.5C10.833 8.67 11.503 8 12.333 8C13.163 8 13.833 8.67 13.833 9.5C13.833 10.33 13.163 11 12.333 11Z" fill="#81737A"/>
</svg>
