<svg width="25" height="24" viewBox="0 0 25 24" fill="none" xmlns="http://www.w3.org/2000/svg">
<path d="M7.6665 16H14.6665V18H7.6665V16ZM7.6665 12H17.6665V14H7.6665V12ZM7.6665 8H17.6665V10H7.6665V8ZM19.6665 4H15.4865C15.0665 2.84 13.9665 2 12.6665 2C11.3665 2 10.2665 2.84 9.8465 4H5.6665C5.5265 4 5.3965 4.01 5.2665 4.04C4.8765 4.12 4.5265 4.32 4.2565 4.59C4.0765 4.77 3.9265 4.99 3.8265 5.23C3.7265 5.46 3.6665 5.72 3.6665 6V20C3.6665 20.27 3.7265 20.54 3.8265 20.78C3.9265 21.02 4.0765 21.23 4.2565 21.42C4.5265 21.69 4.8765 21.89 5.2665 21.97C5.3965 21.99 5.5265 22 5.6665 22H19.6665C20.7665 22 21.6665 21.1 21.6665 20V6C21.6665 4.9 20.7665 4 19.6665 4ZM12.6665 3.75C13.0765 3.75 13.4165 4.09 13.4165 4.5C13.4165 4.91 13.0765 5.25 12.6665 5.25C12.2565 5.25 11.9165 4.91 11.9165 4.5C11.9165 4.09 12.2565 3.75 12.6665 3.75ZM19.6665 20H5.6665V6H19.6665V20Z" fill="#81737A"/>
</svg>
