<svg width="25" height="24" viewBox="0 0 25 24" fill="none" xmlns="http://www.w3.org/2000/svg">
<path d="M19.6665 4H15.4865C15.0665 2.84 13.9665 2 12.6665 2C11.3665 2 10.2665 2.84 9.8465 4H5.6665C4.5665 4 3.6665 4.9 3.6665 6V20C3.6665 21.1 4.5665 22 5.6665 22H19.6665C20.7665 22 21.6665 21.1 21.6665 20V6C21.6665 4.9 20.7665 4 19.6665 4ZM12.6665 4C13.2165 4 13.6665 4.45 13.6665 5C13.6665 5.55 13.2165 6 12.6665 6C12.1165 6 11.6665 5.55 11.6665 5C11.6665 4.45 12.1165 4 12.6665 4ZM14.6665 18H7.6665V16H14.6665V18ZM17.6665 14H7.6665V12H17.6665V14ZM17.6665 10H7.6665V8H17.6665V10Z" fill="#37072A"/>
</svg>
