<svg width="24" height="25" viewBox="0 0 24 25" fill="none" xmlns="http://www.w3.org/2000/svg">
<path d="M14.12 5.04834L15.95 7.04834H20V19.0483H4V7.04834H8.05L9.88 5.04834H14.12ZM15 3.04834H9L7.17 5.04834H4C2.9 5.04834 2 5.94834 2 7.04834V19.0483C2 20.1483 2.9 21.0483 4 21.0483H20C21.1 21.0483 22 20.1483 22 19.0483V7.04834C22 5.94834 21.1 5.04834 20 5.04834H16.83L15 3.04834ZM12 10.0483C13.65 10.0483 15 11.3983 15 13.0483C15 14.6983 13.65 16.0483 12 16.0483C10.35 16.0483 9 14.6983 9 13.0483C9 11.3983 10.35 10.0483 12 10.0483ZM12 8.04834C9.24 8.04834 7 10.2883 7 13.0483C7 15.8083 9.24 18.0483 12 18.0483C14.76 18.0483 17 15.8083 17 13.0483C17 10.2883 14.76 8.04834 12 8.04834Z" fill="#211A1D"/>
</svg>
