<svg width="24" height="25" viewBox="0 0 24 25" fill="none" xmlns="http://www.w3.org/2000/svg">
<path d="M12 8.04834C13.1 8.04834 14 7.14834 14 6.04834C14 4.94834 13.1 4.04834 12 4.04834C10.9 4.04834 10 4.94834 10 6.04834C10 7.14834 10.9 8.04834 12 8.04834ZM12 10.0483C10.9 10.0483 10 10.9483 10 12.0483C10 13.1483 10.9 14.0483 12 14.0483C13.1 14.0483 14 13.1483 14 12.0483C14 10.9483 13.1 10.0483 12 10.0483ZM12 16.0483C10.9 16.0483 10 16.9483 10 18.0483C10 19.1483 10.9 20.0483 12 20.0483C13.1 20.0483 14 19.1483 14 18.0483C14 16.9483 13.1 16.0483 12 16.0483Z" fill="#211A1D"/>
</svg>
