<svg width="336" height="56" viewBox="0 0 336 56" fill="none" xmlns="http://www.w3.org/2000/svg">
<circle cx="23.1906" cy="36.9399" r="6.99536" transform="rotate(-30 23.1906 36.9399)" fill="#B61263"/>
<path d="M36.9317 39.7535C39.2497 43.7685 44.3837 45.1442 48.3987 42.8261L34.408 18.5935C32.0899 14.5785 26.956 13.2028 22.941 15.5209L36.9317 39.7535Z" fill="#B61263"/>
<path d="M51.4277 41.0768C55.4427 38.7587 56.8184 33.6248 54.5003 29.6098L51.3524 24.1574C49.0343 20.1424 43.9004 18.7668 39.8854 21.0848L51.4277 41.0768Z" fill="#B61263"/>
<path d="M76.0777 38L71.6977 38L68.9777 33.44L68.9777 38L65.2577 38L65.2577 27.2L68.9777 27.2L68.9777 31.44L71.5777 27.2L75.7377 27.2L72.3577 32.38L76.0777 38ZM84.335 27.2L88.335 27.2L83.795 37.52C82.335 40.84 81.015 42.02 78.215 42.02L76.935 42.02L76.935 38.84L77.975 38.84C79.395 38.84 79.815 38.46 80.315 37.12L75.855 27.2L79.895 27.2L82.195 33.16L84.335 27.2ZM89.4373 27.2L99.8173 27.2L99.8173 38L96.0973 38L96.0973 30.4L93.1373 30.4L93.1373 38L89.4373 38L89.4373 27.2ZM110.112 27.2L112.272 27.2L112.272 38L108.672 38L108.672 33.16L104.332 38L102.152 38L102.152 27.2L105.732 27.2L105.732 32L110.112 27.2ZM118.869 34.16L118.869 30.78L126.189 30.78L126.189 34.16L118.869 34.16ZM140.737 27.2L142.897 27.2L142.897 38L139.297 38L139.297 33.16L134.957 38L132.777 38L132.777 27.2L136.357 27.2L136.357 32L140.737 27.2ZM159.154 27.2L159.154 30.42L155.774 30.42L155.774 38L152.114 38L152.114 30.42L148.714 30.42L148.714 27.2L159.154 27.2ZM165.853 38.36C162.333 38.36 159.813 35.94 159.813 32.6C159.813 29.26 162.333 26.86 165.853 26.86C169.373 26.86 171.913 29.26 171.913 32.6C171.913 35.94 169.373 38.36 165.853 38.36ZM165.853 35.02C167.213 35.02 168.193 34.04 168.193 32.62C168.193 31.2 167.213 30.2 165.853 30.2C164.513 30.2 163.533 31.18 163.533 32.62C163.533 34.04 164.513 35.02 165.853 35.02ZM179.417 27.2L183.097 27.2L183.097 38L179.417 38L179.417 34.78C178.837 34.94 178.217 35.02 177.617 35.02C174.857 35.02 173.057 33.26 173.057 30.32L173.057 27.2L176.737 27.2L176.737 30.34C176.737 31.42 177.217 31.94 178.177 31.94C178.617 31.94 179.097 31.84 179.417 31.66L179.417 27.2ZM196.253 38L191.873 38L189.153 33.44L189.153 38L185.433 38L185.433 27.2L189.153 27.2L189.153 31.44L191.753 27.2L195.913 27.2L192.533 32.38L196.253 38ZM205.423 27.2L208.203 27.2L208.203 38L205.323 38L205.003 37.24C204.123 37.96 203.003 38.36 201.743 38.36C198.443 38.36 196.083 35.96 196.083 32.6C196.083 29.26 198.443 26.88 201.743 26.88C203.023 26.88 204.163 27.3 205.043 28.04L205.423 27.2ZM202.243 35.08C203.643 35.08 204.663 34.02 204.663 32.6C204.663 31.2 203.643 30.16 202.243 30.16C200.843 30.16 199.823 31.2 199.823 32.6C199.823 34.02 200.843 35.08 202.243 35.08Z" fill="#6A3457"/>
</svg>
