<svg width="24" height="24" viewBox="0 0 24 24" fill="none" xmlns="http://www.w3.org/2000/svg">
<path d="M18 8.50006H17V6.50006C17 3.74006 14.76 1.50006 12 1.50006C9.24 1.50006 7 3.74006 7 6.50006V8.50006H6C4.9 8.50006 4 9.40006 4 10.5001V20.5001C4 21.6001 4.9 22.5001 6 22.5001H18C19.1 22.5001 20 21.6001 20 20.5001V10.5001C20 9.40006 19.1 8.50006 18 8.50006ZM9 6.50006C9 4.84006 10.34 3.50006 12 3.50006C13.66 3.50006 15 4.84006 15 6.50006V8.50006H9V6.50006ZM18 20.5001H6V10.5001H18V20.5001ZM12 17.5001C13.1 17.5001 14 16.6001 14 15.5001C14 14.4001 13.1 13.5001 12 13.5001C10.9 13.5001 10 14.4001 10 15.5001C10 16.6001 10.9 17.5001 12 17.5001Z" fill="#81737A"/>
</svg>
