<svg width="65" height="32" viewBox="0 0 65 32" fill="none" xmlns="http://www.w3.org/2000/svg">
<g clip-path="url(#clip0_57160_2772)">
<rect x="0.666504" width="64" height="32" rx="16" fill="#FFD9E2"/>
<path d="M39.6665 8H35.4865C35.0665 6.84 33.9665 6 32.6665 6C31.3665 6 30.2665 6.84 29.8465 8H25.6665C24.5665 8 23.6665 8.9 23.6665 10V24C23.6665 25.1 24.5665 26 25.6665 26H39.6665C40.7665 26 41.6665 25.1 41.6665 24V10C41.6665 8.9 40.7665 8 39.6665 8ZM32.6665 8C33.2165 8 33.6665 8.45 33.6665 9C33.6665 9.55 33.2165 10 32.6665 10C32.1165 10 31.6665 9.55 31.6665 9C31.6665 8.45 32.1165 8 32.6665 8ZM34.6665 22H27.6665V20H34.6665V22ZM37.6665 18H27.6665V16H37.6665V18ZM37.6665 14H27.6665V12H37.6665V14Z" fill="#37072A"/>
</g>
<defs>
<clipPath id="clip0_57160_2772">
<rect x="0.666504" width="64" height="32" rx="16" fill="white"/>
</clipPath>
</defs>
</svg>
